<?xml version="1.0" encoding="UTF-8" standalone="no"?>
<svg
   version="1.0"
   width="800.000000pt"
   height="420.000000pt"
   viewBox="0 0 800.000000 420.000000"
   preserveAspectRatio="xMidYMid meet"
   id="svg16"
   sodipodi:docname="abuzon.svg"
   inkscape:version="1.1.2 (0a00cf5339, 2022-02-04)"
   xmlns:inkscape="http://www.inkscape.org/namespaces/inkscape"
   xmlns:sodipodi="http://sodipodi.sourceforge.net/DTD/sodipodi-0.dtd"
   xmlns="http://www.w3.org/2000/svg"
   xmlns:svg="http://www.w3.org/2000/svg">
  <defs
     id="defs20" />
  <sodipodi:namedview
     id="namedview18"
     pagecolor="#ffffff"
     bordercolor="#666666"
     borderopacity="1.0"
     inkscape:pageshadow="2"
     inkscape:pageopacity="0.0"
     inkscape:pagecheckerboard="0"
     inkscape:document-units="pt"
     showgrid="false"
     inkscape:zoom="1.14375"
     inkscape:cx="532.89617"
     inkscape:cy="280.21858"
     inkscape:window-width="1600"
     inkscape:window-height="851"
     inkscape:window-x="0"
     inkscape:window-y="25"
     inkscape:window-maximized="1"
     inkscape:current-layer="svg16" />
  <g
     transform="translate(0.000000,420.000000) scale(0.100000,-0.100000)"
     fill="#000000"
     stroke="none"
     id="g14">
    <path
       d="M2602 2812 c-10 -7 -12 -135 -10 -608 l3 -599 88 -3 c54 -2 94 2 102 8 9 8 26 7 60 -1 66 -17 163 -5 225 26 138 70 210 211 210 415 0 217 -74 362 -218 428 -56 25 -156 35 -222 22 l-25 -5 -3 155 c-2 108 -6 156 -15 162 -16 10 -178 10 -195 0z m377 -487 c49 -25 70 -108 71 -272 0 -62 -5 -136 -11 -165 -31 -142 -174 -162 -221 -30 -9 25 -13 93 -13 207 0 157 2 173 22 212 13 23 31 47 40 52 26 15 80 13 112 -4z"
       id="path2" />
    <path
       d="M1980 2519 c-85 -12 -180 -59 -224 -111 -32 -37 -66 -112 -66 -144 0 -21 30 -31 117 -38 l82 -7 22 46 c35 74 120 106 190 69 37 -18 59 -67 59 -128 l0 -44 -67 -7 c-306 -31 -427 -123 -427 -325 0 -174 106 -270 283 -258 79 6 144 33 198 82 l40 35 47 -54 c29 -34 55 -55 68 -55 11 0 51 27 89 61 65 57 83 89 59 104 -6 4 -22 28 -35 55 -24 48 -25 55 -25 273 0 286 -9 320 -100 389 -64 48 -196 72 -310 57z m175 -569 c-1 -131 -58 -210 -152 -210 -34 0 -46 5 -67 31 -21 25 -26 41 -26 85 0 64 18 104 57 129 36 24 110 44 153 42 l35 -2 0 -75z"
       id="path4" />
    <path
       d="M5234 2520 c-132 -27 -226 -121 -280 -280 -29 -83 -26 -312 4 -394 48 -129 129 -220 225 -252 71 -24 177 -23 246 1 64 23 150 97 188 162 102 175 92 454 -24 621 -39 57 -100 105 -161 126 -52 19 -149 26 -198 16z m139 -190 c49 -39 62 -97 62 -285 0 -153 -2 -175 -22 -217 -36 -80 -119 -103 -173 -49 -45 45 -63 124 -63 281 0 158 12 211 58 257 40 40 97 45 138 13z"
       id="path6" />
    <path
       d="M3402 2512 c-18 -12 -12 -729 6 -784 27 -79 100 -134 192 -145 100 -12 188 36 232 124 l23 48 5 -75 5 -75 100 0 100 0 3 449 c2 353 0 451 -10 458 -15 9 -169 11 -192 2 -14 -5 -16 -37 -16 -253 0 -259 -10 -366 -36 -411 -20 -33 -63 -60 -97 -60 -30 0 -75 34 -88 68 -5 13 -10 154 -10 312 0 157 -3 300 -8 316 l-7 29 -95 3 c-52 1 -100 -2 -107 -6z"
       id="path8" />
    <path
       d="M6195 2514 c-11 -3 -30 -7 -43 -10 -32 -7 -100 -70 -125 -118 l-22 -41 -5 75 -5 75 -100 0 -100 0 -3 -449 c-2 -353 0 -451 10 -458 21 -13 192 -10 206 4 9 9 12 88 12 293 0 231 3 290 16 328 25 74 86 111 145 87 61 -26 63 -42 69 -395 l5 -320 103 -3 c102 -3 102 -3 112 23 13 34 13 541 0 663 -13 126 -44 183 -120 222 -37 18 -121 31 -155 24z"
       id="path10" />
    <path
       d="M4217 2493 c-4 -3 -7 -46 -7 -94 0 -82 2 -90 24 -104 43 -29 139 -57 224 -65 47 -5 85 -10 87 -12 1 -2 -69 -104 -156 -228 l-159 -225 0 -76 c0 -61 3 -78 16 -83 9 -3 140 -6 293 -6 202 0 280 3 289 12 17 17 16 152 -1 166 -8 7 -72 13 -159 14 l-145 3 159 225 c88 124 166 239 174 257 16 37 19 189 4 213 -8 13 -14 13 -42 1 -99 -40 -151 -53 -240 -58 -110 -7 -193 6 -280 43 -61 26 -71 28 -81 17z"
       id="path12" />
  </g>
  <path
     style="fill:#ffff00;stroke-width:0.75"
     id="path244"
     d="m 209.1939,160.99909 c 0.12633,-2.10431 0.33635,-4.20302 0.54037,-6.30096 0.34659,-3.96606 0.95805,-7.89792 1.73058,-11.80124 0.85712,-4.45463 2.3161,-8.70387 4.34614,-12.74965 1.56389,-2.83182 3.29708,-5.604 5.41823,-8.05838 1.23234,-1.42591 2.16633,-2.24613 3.54572,-3.55869 4.61135,-4.22853 9.86287,-7.6093 15.32999,-10.60514 6.69726,-3.49399 13.72087,-6.28133 20.83788,-8.783648 7.33492,-2.496765 14.82698,-4.485997 22.37087,-6.235177 7.90879,-1.791353 15.96054,-2.839853 24.02628,-3.598335 8.80871,-0.758708 17.65801,-0.721718 26.48976,-0.570023 7.98851,0.02242 15.85356,1.28433 23.65212,2.892023 8.24694,1.814452 16.39047,4.05579 24.47409,6.48783 6.49723,1.93096 12.86479,4.23868 19.04131,7.02693 4.89431,2.24166 9.51771,4.98873 13.96373,8.01014 3.79871,2.63552 7.32766,5.61381 10.65731,8.81427 2.66113,2.55278 4.96567,5.42126 6.99923,8.48867 1.79096,2.76936 3.32017,5.69181 4.74443,8.66261 1.17242,2.55778 2.32564,5.12473 3.42597,7.71446 0.82346,2.05634 1.59348,4.13294 2.4132,6.19089 0.14384,0.34556 0.28767,0.69111 0.43151,1.03666 0.8871,2.12372 19.65829,-5.71721 18.77119,-7.84093 v 0 c -0.10131,-0.24133 -0.20263,-0.48266 -0.30394,-0.724 -0.8775,-2.2027 -1.69197,-4.42942 -2.5913,-6.62343 -1.2249,-2.87836 -2.50349,-5.73381 -3.81509,-8.57363 -1.8501,-3.83451 -3.83991,-7.60456 -6.17748,-11.16863 -2.88209,-4.26889 -6.09443,-8.2972 -9.83141,-11.85881 -4.1671,-3.97539 -8.56631,-7.694853 -13.31726,-10.96249 -5.42655,-3.664035 -11.0623,-7.006493 -17.03132,-9.72117 -6.99166,-3.130395 -14.17457,-5.781008 -21.52388,-7.953398 -8.66767,-2.603355 -17.39921,-5.004312 -26.24429,-6.934399 -9.03216,-1.843074 -18.14679,-3.264663 -27.39234,-3.30366 -9.58842,-0.161405 -19.19517,-0.182625 -28.75713,0.658046 -8.96733,0.857579 -17.91861,2.027151 -26.70965,4.035434 -8.27262,1.926527 -16.48972,4.110474 -24.53002,6.864594 -8.17039,2.88753 -16.23385,6.104025 -23.90546,10.159748 -7.01238,3.893662 -13.74904,8.278312 -19.62808,13.779425 -2.41186,2.35166 -3.24441,3.04736 -5.4194,5.6349 -2.99914,3.56802 -5.48347,7.5499 -7.67568,11.65199 -0.50834,1.05012 -1.04883,2.08527 -1.52502,3.15036 -2.09335,4.68207 -3.4451,9.64594 -4.52254,14.64758 -0.88683,4.55111 -1.61235,9.13118 -2.01612,13.75314 -0.2664,2.74992 -0.56119,5.50284 -0.6355,8.26609 0,2.30156 20.343,2.30156 20.343,0 z" />
  <path
     style="fill:#ffff00;stroke-width:0.75"
     id="path246"
     d="m 426.75641,145.43543 c 0.27683,2.17771 0.97689,4.26092 1.78218,6.29236 0.95976,2.31937 2.25192,4.46832 3.66675,6.53327 1.53225,2.19161 3.34545,4.14596 5.28504,5.97755 2.21439,2.05664 4.7053,3.76906 7.22786,5.41866 1.97082,1.26768 3.97821,2.47656 5.99896,3.66252 2.88635,1.76944 6.23003,2.68791 9.62025,2.5857 0.74231,-0.0223 1.47935,-0.13282 2.21903,-0.19923 3.74287,-0.65437 7.17997,-2.38392 9.81932,-5.14261 0.54754,-0.57229 1.01912,-1.2127 1.52867,-1.81904 2.46057,-3.2178 3.63422,-6.97982 4.17584,-10.9377 0.25864,-2.69441 0.10041,-5.40338 -0.008,-8.10131 -0.0991,-2.18048 -0.31348,-4.35175 -0.55113,-6.5206 -0.17611,-1.57601 -0.33682,-3.15366 -0.48872,-4.73216 -0.13819,-1.35802 -0.22135,-2.72053 -0.30142,-4.08292 -0.22618,-4.58789 -2.01705,-7.94574 -5.80515,-10.67565 -0.72371,-0.52155 -1.59004,-0.80924 -2.38506,-1.21385 -2.59995,-0.98428 -5.34837,-1.35633 -8.10753,-1.49208 -4.20759,-0.0122 -8.16578,1.62387 -10.95724,4.82581 -0.56087,0.64334 -1.00214,1.38188 -1.50321,2.07282 -1.14718,1.75681 -1.69394,3.81751 -2.50146,5.71149 -0.18038,-0.22586 0.61319,-0.87432 0.50714,-1.06772 -0.004,-0.008 -0.61533,0.37179 -1.05375,0.64212 -1.19692,0.73522 -2.51463,1.24011 -3.82561,1.72994 -1.47979,0.54509 -3.02013,0.86919 -4.56438,1.16535 -1.53604,0.2895 -3.07757,0.54973 -4.63465,0.69303 -0.0498,-0.006 -0.0997,-0.0126 -0.14948,-0.0189 -2.30052,0.0692 -1.68879,20.40301 0.61172,20.3338 v 0 c 0.50858,-0.0231 1.01716,-0.0462 1.52574,-0.0693 2.18652,-0.22169 4.35943,-0.54518 6.5167,-0.96717 2.6721,-0.52153 5.32619,-1.14507 7.88005,-2.1052 2.61766,-0.99484 5.20582,-2.09572 7.57441,-3.60715 3.30616,-2.13643 6.3452,-4.62304 8.10275,-8.24745 0.42816,-0.9788 0.82229,-1.93873 1.17668,-2.94393 0.16758,-0.47535 0.19485,-0.57246 0.18126,-0.56372 -0.0931,0.0599 -0.1346,0.1758 -0.2019,0.2637 -1.40482,1.57621 -3.27207,2.68187 -5.46108,2.48062 0.33447,-0.0114 2.31531,0.3568 0.95806,-0.10057 -2.22995,-1.37439 -4.20031,-3.53141 -4.23664,-6.29807 -0.003,-0.21639 0.0299,0.43178 0.0448,0.64767 0.0952,1.61409 0.19743,3.22806 0.35991,4.83706 0.16064,1.66748 0.33024,3.3341 0.51619,4.99898 0.18673,1.70288 0.36408,3.40635 0.44631,5.11829 0.0649,1.61783 0.14563,3.23695 0.13704,4.85634 -0.005,0.30373 0.10593,0.58536 -0.0355,0.87781 0.62411,-0.46217 1.33598,-0.73187 2.12354,-0.72582 0.59823,0.0517 2.88175,1.13196 1.03703,0.24356 -1.74258,-1.02099 -3.47291,-2.06285 -5.17399,-3.1519 -1.54994,-1.00818 -3.10451,-2.02249 -4.47887,-3.26752 -0.90675,-0.81591 -1.72441,-1.7109 -2.44347,-2.69862 -0.5808,-0.80529 -1.09508,-1.65258 -1.51454,-2.55394 -0.14223,-0.33012 -0.67311,-2.12297 -0.40179,-0.71774 -0.23231,-2.28979 -20.47141,-0.2364 -20.2391,2.05339 z" />
  <path
     style="fill:#ffff00;stroke-width:0.75"
     id="path248"
     d="m 447.86197,156.45397 c 0.48559,0.39912 0.71537,0.69121 1.06635,1.08247 0.66935,0.764 1.35458,1.51397 2.04365,2.26032 0.47632,0.50471 0.95334,1.00871 1.42657,1.51634 1.57174,1.6813 16.43246,-12.21102 14.86072,-13.89232 v 0 c -0.44703,-0.47732 -0.89535,-0.95342 -1.34483,-1.42838 -0.62354,-0.67461 -1.2461,-1.35015 -1.84723,-2.04462 -0.65858,-0.73312 -1.32754,-1.45806 -2.06081,-2.11479 -1.65418,-1.60026 -15.7986,13.02072 -14.14442,14.62098 z" />
</svg>
